<svg xmlns="http://www.w3.org/2000/svg" viewBox="0 0 250 145.35"><defs><style>.cls-1{fill:#fff;}</style></defs><g id="Layer_2" data-name="Layer 2"><g id="vertical"><path class="cls-1" d="M99.82,42.23l15.57-15.57c.12-.12.18-.24.14-.28L99.36,10.21l-16,16L99.55,42.36S99.71,42.34,99.82,42.23Z"/><path class="cls-1" d="M248.81,60.61l0,0-7.54-7.54L188.2,0l-16,16L225.27,69l-33.55,33.54L168.31,79.16l-16-16L121.6,32.45c-.08-.08-.23,0-.35.07L105.68,48.09c-.11.11-.14.27-.07.34l30.73,30.73L97.17,118.33,16,37.15l-16,16,81.19,81.19,7.54,7.54a11.94,11.94,0,0,0,16.88,0l7.54-7.54,39.18-39.17,23.41,23.41h0l7.26,7.26a12.3,12.3,0,0,0,13.05,2.8l.08,0c.32-.12.62-.29.93-.43a10.15,10.15,0,0,0,3.1-2.07l7.34-7.33h0l33.71-33.72,7.58-7.58h0a4.23,4.23,0,0,0,1.19-3c0-3.61,0-7.23,0-10.84A4.24,4.24,0,0,0,248.81,60.61Z"/></g></g></svg>